# xmcd
#
# Track frame offsets:
# 150
# 17419
# 35040
# 53111
# 69924
# 85857
# 104796
# 119609
# 136890
# 151982
# 170121
# 184147
# 201138
# 219573
# 232976
# 250784
# 269266
# 284528
# 302869
# 322071
#
# Disc length: 4512 seconds
#
#
# Revision: 0
# Processed by: cddbd v1.5.1PL0 Copyright (c) Steve Scherf et al.
# Submitted via: FreeRIP 2.60 
#
DISCID=2a119e14
DTITLE=Various Artist - Nu Country Traxx 133
DYEAR=2005
DGENRE=Country
TTITLE0=Toby Keith - As Good As I Once Was
TTITLE1=Faith Hill - Mississippi Girl
TTITLE2=Trace Adkins - Arlington
TTITLE3=Keith Anderson - XXL
TTITLE4=Shania Twain - I Ain't No Quitter
TTITLE5=Josh Gracin - Stay With Me (Brass Bed)
TTITLE6=Brooks and Dunn - Play Something Country
TTITLE7=Craig Morgan - Redneck Yacht Club
TTITLE8=Aaron Lines - It Takes A Man
TTITLE9=Tim Mcgraw - Do You Want Fries With That
TTITLE10=Jeff Bates - Good People
TTITLE11=Shooter Jennings - 4th Of July
TTITLE12=Billy Currington - Must Be Doin' Something Right
TTITLE13=Jace Everett - That's The Kinda Love I'm In
TTITLE14=Chris Cagle - Miss Me Baby
TTITLE15=Gary Allen - Best I Ever Had
TTITLE16=Lonestar - You're Like Comin' Home
TTITLE17=Little Big Town - Boondocks
TTITLE18=Sawyer Brown - They Don't Understand
TTITLE19=Jake Matthews - Kings For A Day
EXTD=
EXTT0=
EXTT1=
EXTT2=
EXTT3=
EXTT4=
EXTT5=
EXTT6=
EXTT7=
EXTT8=
EXTT9=
EXTT10=
EXTT11=
EXTT12=
EXTT13=
EXTT14=
EXTT15=
EXTT16=
EXTT17=
EXTT18=
EXTT19=
PLAYORDER=
